<mxfile host="app.diagrams.net" agent="Mozilla/5.0 (Windows NT 10.0; Win64; x64) AppleWebKit/537.36 (KHTML, like Gecko) Chrome/131.0.0.0 Safari/537.36 Edg/131.0.0.0" version="26.0.2">
  <diagram id="hvVRYcgnZZDShzeWK8Go" name="第 1 页">
    <mxGraphModel dx="1471" dy="1305" grid="1" gridSize="10" guides="1" tooltips="1" connect="1" arrows="1" fold="1" page="1" pageScale="1" pageWidth="827" pageHeight="1169" math="0" shadow="0">
      <root>
        <mxCell id="0" />
        <mxCell id="1" parent="0" />
        <mxCell id="fquedlguML3Tx2x5SOF--1" value="" style="edgeStyle=orthogonalEdgeStyle;rounded=0;orthogonalLoop=1;jettySize=auto;html=1;" edge="1" parent="1" source="fquedlguML3Tx2x5SOF--2" target="fquedlguML3Tx2x5SOF--4">
          <mxGeometry relative="1" as="geometry" />
        </mxCell>
        <mxCell id="fquedlguML3Tx2x5SOF--2" value="" style="ellipse;whiteSpace=wrap;html=1;aspect=fixed;" vertex="1" parent="1">
          <mxGeometry x="1725" width="70" height="70" as="geometry" />
        </mxCell>
        <mxCell id="fquedlguML3Tx2x5SOF--3" value="" style="edgeStyle=orthogonalEdgeStyle;rounded=0;orthogonalLoop=1;jettySize=auto;html=1;" edge="1" parent="1" source="fquedlguML3Tx2x5SOF--4" target="fquedlguML3Tx2x5SOF--6">
          <mxGeometry relative="1" as="geometry" />
        </mxCell>
        <mxCell id="fquedlguML3Tx2x5SOF--4" value="打開註冊頁面" style="whiteSpace=wrap;html=1;" vertex="1" parent="1">
          <mxGeometry x="1700" y="100" width="120" height="60" as="geometry" />
        </mxCell>
        <mxCell id="fquedlguML3Tx2x5SOF--5" value="" style="edgeStyle=orthogonalEdgeStyle;rounded=0;orthogonalLoop=1;jettySize=auto;html=1;" edge="1" parent="1" source="fquedlguML3Tx2x5SOF--6" target="fquedlguML3Tx2x5SOF--11">
          <mxGeometry relative="1" as="geometry" />
        </mxCell>
        <mxCell id="fquedlguML3Tx2x5SOF--6" value="填寫註冊資料" style="whiteSpace=wrap;html=1;" vertex="1" parent="1">
          <mxGeometry x="1700" y="200" width="120" height="60" as="geometry" />
        </mxCell>
        <mxCell id="fquedlguML3Tx2x5SOF--7" value="" style="edgeStyle=orthogonalEdgeStyle;rounded=0;orthogonalLoop=1;jettySize=auto;html=1;" edge="1" parent="1" source="fquedlguML3Tx2x5SOF--11" target="fquedlguML3Tx2x5SOF--17">
          <mxGeometry relative="1" as="geometry" />
        </mxCell>
        <mxCell id="fquedlguML3Tx2x5SOF--8" value="Yes" style="edgeLabel;html=1;align=center;verticalAlign=middle;resizable=0;points=[];" vertex="1" connectable="0" parent="fquedlguML3Tx2x5SOF--7">
          <mxGeometry x="-0.1179" relative="1" as="geometry">
            <mxPoint as="offset" />
          </mxGeometry>
        </mxCell>
        <mxCell id="fquedlguML3Tx2x5SOF--9" style="edgeStyle=orthogonalEdgeStyle;rounded=0;orthogonalLoop=1;jettySize=auto;html=1;entryX=1;entryY=0.5;entryDx=0;entryDy=0;exitX=1;exitY=0.5;exitDx=0;exitDy=0;" edge="1" parent="1" source="fquedlguML3Tx2x5SOF--11" target="fquedlguML3Tx2x5SOF--6">
          <mxGeometry relative="1" as="geometry">
            <Array as="points">
              <mxPoint x="1850" y="340" />
              <mxPoint x="1850" y="230" />
            </Array>
            <mxPoint x="1794.9985714285715" y="409.97142857142853" as="sourcePoint" />
            <mxPoint x="1854.97" y="230" as="targetPoint" />
          </mxGeometry>
        </mxCell>
        <mxCell id="fquedlguML3Tx2x5SOF--10" value="No" style="edgeLabel;html=1;align=center;verticalAlign=middle;resizable=0;points=[];" vertex="1" connectable="0" parent="fquedlguML3Tx2x5SOF--9">
          <mxGeometry x="-0.8119" relative="1" as="geometry">
            <mxPoint x="2" as="offset" />
          </mxGeometry>
        </mxCell>
        <mxCell id="fquedlguML3Tx2x5SOF--11" value="格式是否符合" style="rhombus;whiteSpace=wrap;html=1;" vertex="1" parent="1">
          <mxGeometry x="1720" y="300" width="80" height="80" as="geometry" />
        </mxCell>
        <mxCell id="fquedlguML3Tx2x5SOF--12" style="edgeStyle=orthogonalEdgeStyle;rounded=0;orthogonalLoop=1;jettySize=auto;html=1;entryX=0;entryY=0.5;entryDx=0;entryDy=0;exitX=0;exitY=0.5;exitDx=0;exitDy=0;" edge="1" parent="1" source="fquedlguML3Tx2x5SOF--17" target="fquedlguML3Tx2x5SOF--6">
          <mxGeometry relative="1" as="geometry">
            <Array as="points">
              <mxPoint x="1650" y="475" />
              <mxPoint x="1650" y="230" />
            </Array>
            <mxPoint x="1665.9985714285715" y="499.97802197802184" as="sourcePoint" />
            <mxPoint x="1605.97" y="215" as="targetPoint" />
          </mxGeometry>
        </mxCell>
        <mxCell id="fquedlguML3Tx2x5SOF--13" value="Yes" style="edgeLabel;html=1;align=center;verticalAlign=middle;resizable=0;points=[];" vertex="1" connectable="0" parent="fquedlguML3Tx2x5SOF--12">
          <mxGeometry x="-0.8765" relative="1" as="geometry">
            <mxPoint x="-6" as="offset" />
          </mxGeometry>
        </mxCell>
        <mxCell id="fquedlguML3Tx2x5SOF--14" value="" style="edgeStyle=orthogonalEdgeStyle;rounded=0;orthogonalLoop=1;jettySize=auto;html=1;entryX=0.5;entryY=0;entryDx=0;entryDy=0;" edge="1" parent="1" source="fquedlguML3Tx2x5SOF--17" target="fquedlguML3Tx2x5SOF--18">
          <mxGeometry relative="1" as="geometry">
            <mxPoint x="1760" y="755" as="targetPoint" />
          </mxGeometry>
        </mxCell>
        <mxCell id="fquedlguML3Tx2x5SOF--15" value="No" style="edgeLabel;html=1;align=center;verticalAlign=middle;resizable=0;points=[];" vertex="1" connectable="0" parent="fquedlguML3Tx2x5SOF--14">
          <mxGeometry x="-0.1206" relative="1" as="geometry">
            <mxPoint y="-71" as="offset" />
          </mxGeometry>
        </mxCell>
        <mxCell id="fquedlguML3Tx2x5SOF--16" value="No" style="edgeLabel;html=1;align=center;verticalAlign=middle;resizable=0;points=[];" vertex="1" connectable="0" parent="fquedlguML3Tx2x5SOF--14">
          <mxGeometry x="-0.1714" relative="1" as="geometry">
            <mxPoint as="offset" />
          </mxGeometry>
        </mxCell>
        <mxCell id="fquedlguML3Tx2x5SOF--17" value="檢查帳號是否重複" style="rhombus;whiteSpace=wrap;html=1;" vertex="1" parent="1">
          <mxGeometry x="1708" y="435" width="104" height="80" as="geometry" />
        </mxCell>
        <mxCell id="fquedlguML3Tx2x5SOF--18" value="更新資料庫" style="whiteSpace=wrap;html=1;" vertex="1" parent="1">
          <mxGeometry x="1700" y="575" width="120" height="60" as="geometry" />
        </mxCell>
        <mxCell id="fquedlguML3Tx2x5SOF--19" value="" style="verticalLabelPosition=bottom;verticalAlign=top;html=1;shape=mxgraph.basic.donut;dx=25;" vertex="1" parent="1">
          <mxGeometry x="1715" y="690" width="90" height="90" as="geometry" />
        </mxCell>
        <mxCell id="fquedlguML3Tx2x5SOF--20" style="edgeStyle=orthogonalEdgeStyle;rounded=0;orthogonalLoop=1;jettySize=auto;html=1;entryX=0.498;entryY=0.003;entryDx=0;entryDy=0;entryPerimeter=0;" edge="1" parent="1" target="fquedlguML3Tx2x5SOF--19">
          <mxGeometry relative="1" as="geometry">
            <mxPoint x="1759.79" y="635" as="sourcePoint" />
            <mxPoint x="1760" y="682" as="targetPoint" />
          </mxGeometry>
        </mxCell>
        <mxCell id="fquedlguML3Tx2x5SOF--21" value="" style="edgeStyle=orthogonalEdgeStyle;rounded=0;orthogonalLoop=1;jettySize=auto;html=1;" edge="1" parent="1" source="fquedlguML3Tx2x5SOF--22" target="fquedlguML3Tx2x5SOF--24">
          <mxGeometry relative="1" as="geometry" />
        </mxCell>
        <mxCell id="fquedlguML3Tx2x5SOF--22" value="" style="ellipse;whiteSpace=wrap;html=1;aspect=fixed;" vertex="1" parent="1">
          <mxGeometry x="1964.94" width="70" height="70" as="geometry" />
        </mxCell>
        <mxCell id="fquedlguML3Tx2x5SOF--23" value="" style="edgeStyle=orthogonalEdgeStyle;rounded=0;orthogonalLoop=1;jettySize=auto;html=1;" edge="1" parent="1" source="fquedlguML3Tx2x5SOF--24" target="fquedlguML3Tx2x5SOF--26">
          <mxGeometry relative="1" as="geometry" />
        </mxCell>
        <mxCell id="fquedlguML3Tx2x5SOF--24" value="打開登入頁面" style="whiteSpace=wrap;html=1;" vertex="1" parent="1">
          <mxGeometry x="1939.94" y="100" width="120" height="60" as="geometry" />
        </mxCell>
        <mxCell id="fquedlguML3Tx2x5SOF--25" value="" style="edgeStyle=orthogonalEdgeStyle;rounded=0;orthogonalLoop=1;jettySize=auto;html=1;" edge="1" parent="1" source="fquedlguML3Tx2x5SOF--26" target="fquedlguML3Tx2x5SOF--31">
          <mxGeometry relative="1" as="geometry" />
        </mxCell>
        <mxCell id="fquedlguML3Tx2x5SOF--26" value="填寫登入資料" style="whiteSpace=wrap;html=1;" vertex="1" parent="1">
          <mxGeometry x="1939.94" y="200" width="120" height="60" as="geometry" />
        </mxCell>
        <mxCell id="fquedlguML3Tx2x5SOF--27" value="" style="edgeStyle=orthogonalEdgeStyle;rounded=0;orthogonalLoop=1;jettySize=auto;html=1;" edge="1" parent="1" source="fquedlguML3Tx2x5SOF--31" target="fquedlguML3Tx2x5SOF--34">
          <mxGeometry relative="1" as="geometry" />
        </mxCell>
        <mxCell id="fquedlguML3Tx2x5SOF--28" value="Yes" style="edgeLabel;html=1;align=center;verticalAlign=middle;resizable=0;points=[];" vertex="1" connectable="0" parent="fquedlguML3Tx2x5SOF--27">
          <mxGeometry x="-0.1179" relative="1" as="geometry">
            <mxPoint as="offset" />
          </mxGeometry>
        </mxCell>
        <mxCell id="fquedlguML3Tx2x5SOF--29" style="edgeStyle=orthogonalEdgeStyle;rounded=0;orthogonalLoop=1;jettySize=auto;html=1;entryX=1;entryY=0.5;entryDx=0;entryDy=0;exitX=1;exitY=0.5;exitDx=0;exitDy=0;" edge="1" parent="1" source="fquedlguML3Tx2x5SOF--31" target="fquedlguML3Tx2x5SOF--26">
          <mxGeometry relative="1" as="geometry">
            <Array as="points">
              <mxPoint x="2090" y="340" />
              <mxPoint x="2090" y="230" />
            </Array>
            <mxPoint x="2034.9447619047614" y="399.99476190476173" as="sourcePoint" />
            <mxPoint x="2094.95" y="250" as="targetPoint" />
          </mxGeometry>
        </mxCell>
        <mxCell id="fquedlguML3Tx2x5SOF--30" value="No" style="edgeLabel;html=1;align=center;verticalAlign=middle;resizable=0;points=[];" vertex="1" connectable="0" parent="fquedlguML3Tx2x5SOF--29">
          <mxGeometry x="-0.8119" relative="1" as="geometry">
            <mxPoint x="2" as="offset" />
          </mxGeometry>
        </mxCell>
        <mxCell id="fquedlguML3Tx2x5SOF--31" value="格式是否符合" style="rhombus;whiteSpace=wrap;html=1;" vertex="1" parent="1">
          <mxGeometry x="1959.94" y="300" width="80" height="80" as="geometry" />
        </mxCell>
        <mxCell id="fquedlguML3Tx2x5SOF--32" style="edgeStyle=orthogonalEdgeStyle;rounded=0;orthogonalLoop=1;jettySize=auto;html=1;entryX=0;entryY=0.5;entryDx=0;entryDy=0;exitX=0;exitY=0.5;exitDx=0;exitDy=0;" edge="1" parent="1" source="fquedlguML3Tx2x5SOF--34" target="fquedlguML3Tx2x5SOF--26">
          <mxGeometry relative="1" as="geometry">
            <Array as="points">
              <mxPoint x="1890" y="475" />
              <mxPoint x="1890" y="230" />
            </Array>
            <mxPoint x="1972.9599999999998" y="514.9682690782167" as="sourcePoint" />
            <mxPoint x="1912.9100000000003" y="230" as="targetPoint" />
          </mxGeometry>
        </mxCell>
        <mxCell id="fquedlguML3Tx2x5SOF--33" value="Yes" style="edgeLabel;html=1;align=center;verticalAlign=middle;resizable=0;points=[];" vertex="1" connectable="0" parent="fquedlguML3Tx2x5SOF--32">
          <mxGeometry x="-0.8765" relative="1" as="geometry">
            <mxPoint x="1" as="offset" />
          </mxGeometry>
        </mxCell>
        <mxCell id="fquedlguML3Tx2x5SOF--34" value="檢查登入資訊是否正確" style="rhombus;whiteSpace=wrap;html=1;" vertex="1" parent="1">
          <mxGeometry x="1936.9099999999999" y="435" width="126.06" height="80" as="geometry" />
        </mxCell>
        <mxCell id="fquedlguML3Tx2x5SOF--35" value="" style="verticalLabelPosition=bottom;verticalAlign=top;html=1;shape=mxgraph.basic.donut;dx=25;" vertex="1" parent="1">
          <mxGeometry x="1954.94" y="690" width="90" height="90" as="geometry" />
        </mxCell>
        <mxCell id="fquedlguML3Tx2x5SOF--36" value="" style="edgeStyle=orthogonalEdgeStyle;rounded=0;orthogonalLoop=1;jettySize=auto;html=1;" edge="1" parent="1" source="fquedlguML3Tx2x5SOF--37" target="fquedlguML3Tx2x5SOF--39">
          <mxGeometry relative="1" as="geometry" />
        </mxCell>
        <mxCell id="fquedlguML3Tx2x5SOF--37" value="" style="ellipse;whiteSpace=wrap;html=1;aspect=fixed;" vertex="1" parent="1">
          <mxGeometry x="2510" width="70" height="70" as="geometry" />
        </mxCell>
        <mxCell id="fquedlguML3Tx2x5SOF--38" value="" style="edgeStyle=orthogonalEdgeStyle;rounded=0;orthogonalLoop=1;jettySize=auto;html=1;" edge="1" parent="1" source="fquedlguML3Tx2x5SOF--39" target="fquedlguML3Tx2x5SOF--41">
          <mxGeometry relative="1" as="geometry" />
        </mxCell>
        <mxCell id="fquedlguML3Tx2x5SOF--39" value="打開教室查詢頁面" style="whiteSpace=wrap;html=1;" vertex="1" parent="1">
          <mxGeometry x="2485" y="155" width="120" height="60" as="geometry" />
        </mxCell>
        <mxCell id="fquedlguML3Tx2x5SOF--40" value="" style="edgeStyle=orthogonalEdgeStyle;rounded=0;orthogonalLoop=1;jettySize=auto;html=1;" edge="1" parent="1" source="fquedlguML3Tx2x5SOF--41" target="fquedlguML3Tx2x5SOF--45">
          <mxGeometry relative="1" as="geometry" />
        </mxCell>
        <mxCell id="fquedlguML3Tx2x5SOF--41" value="顯示教室列表" style="whiteSpace=wrap;html=1;" vertex="1" parent="1">
          <mxGeometry x="2485" y="295" width="120" height="60" as="geometry" />
        </mxCell>
        <mxCell id="fquedlguML3Tx2x5SOF--42" style="edgeStyle=orthogonalEdgeStyle;rounded=0;orthogonalLoop=1;jettySize=auto;html=1;entryX=1;entryY=0.5;entryDx=0;entryDy=0;" edge="1" parent="1" source="fquedlguML3Tx2x5SOF--45" target="fquedlguML3Tx2x5SOF--41">
          <mxGeometry relative="1" as="geometry">
            <Array as="points">
              <mxPoint x="2640" y="465" />
              <mxPoint x="2640" y="325" />
            </Array>
          </mxGeometry>
        </mxCell>
        <mxCell id="fquedlguML3Tx2x5SOF--43" value="限制" style="edgeLabel;html=1;align=center;verticalAlign=middle;resizable=0;points=[];" vertex="1" connectable="0" parent="fquedlguML3Tx2x5SOF--42">
          <mxGeometry x="-0.8463" y="-1" relative="1" as="geometry">
            <mxPoint y="-1" as="offset" />
          </mxGeometry>
        </mxCell>
        <mxCell id="fquedlguML3Tx2x5SOF--44" value="" style="edgeStyle=orthogonalEdgeStyle;rounded=0;orthogonalLoop=1;jettySize=auto;html=1;" edge="1" parent="1" source="fquedlguML3Tx2x5SOF--45" target="fquedlguML3Tx2x5SOF--48">
          <mxGeometry relative="1" as="geometry" />
        </mxCell>
        <mxCell id="fquedlguML3Tx2x5SOF--45" value="樓層篩選" style="whiteSpace=wrap;html=1;" vertex="1" parent="1">
          <mxGeometry x="2485" y="435" width="120" height="60" as="geometry" />
        </mxCell>
        <mxCell id="fquedlguML3Tx2x5SOF--46" style="edgeStyle=orthogonalEdgeStyle;rounded=0;orthogonalLoop=1;jettySize=auto;html=1;entryX=0;entryY=0.5;entryDx=0;entryDy=0;" edge="1" parent="1" source="fquedlguML3Tx2x5SOF--48" target="fquedlguML3Tx2x5SOF--41">
          <mxGeometry relative="1" as="geometry">
            <Array as="points">
              <mxPoint x="2450" y="605" />
              <mxPoint x="2450" y="325" />
            </Array>
          </mxGeometry>
        </mxCell>
        <mxCell id="fquedlguML3Tx2x5SOF--47" value="限制" style="edgeLabel;html=1;align=center;verticalAlign=middle;resizable=0;points=[];" vertex="1" connectable="0" parent="fquedlguML3Tx2x5SOF--46">
          <mxGeometry x="-0.8949" y="-2" relative="1" as="geometry">
            <mxPoint y="2" as="offset" />
          </mxGeometry>
        </mxCell>
        <mxCell id="fquedlguML3Tx2x5SOF--48" value="教室代號篩選" style="whiteSpace=wrap;html=1;" vertex="1" parent="1">
          <mxGeometry x="2485" y="575" width="120" height="60" as="geometry" />
        </mxCell>
        <mxCell id="fquedlguML3Tx2x5SOF--49" value="" style="edgeStyle=orthogonalEdgeStyle;rounded=0;orthogonalLoop=1;jettySize=auto;html=1;" edge="1" parent="1" source="fquedlguML3Tx2x5SOF--50" target="fquedlguML3Tx2x5SOF--52">
          <mxGeometry relative="1" as="geometry" />
        </mxCell>
        <mxCell id="fquedlguML3Tx2x5SOF--50" value="" style="ellipse;whiteSpace=wrap;html=1;aspect=fixed;" vertex="1" parent="1">
          <mxGeometry x="2764" width="70" height="70" as="geometry" />
        </mxCell>
        <mxCell id="fquedlguML3Tx2x5SOF--51" value="" style="edgeStyle=orthogonalEdgeStyle;rounded=0;orthogonalLoop=1;jettySize=auto;html=1;" edge="1" parent="1" source="fquedlguML3Tx2x5SOF--52" target="fquedlguML3Tx2x5SOF--54">
          <mxGeometry relative="1" as="geometry" />
        </mxCell>
        <mxCell id="fquedlguML3Tx2x5SOF--52" value="打開教室查詢頁面" style="whiteSpace=wrap;html=1;" vertex="1" parent="1">
          <mxGeometry x="2739" y="155" width="120" height="60" as="geometry" />
        </mxCell>
        <mxCell id="fquedlguML3Tx2x5SOF--53" value="" style="edgeStyle=orthogonalEdgeStyle;rounded=0;orthogonalLoop=1;jettySize=auto;html=1;" edge="1" parent="1" source="fquedlguML3Tx2x5SOF--54" target="fquedlguML3Tx2x5SOF--56">
          <mxGeometry relative="1" as="geometry" />
        </mxCell>
        <mxCell id="fquedlguML3Tx2x5SOF--54" value="按下查看按鈕" style="whiteSpace=wrap;html=1;" vertex="1" parent="1">
          <mxGeometry x="2739" y="295" width="120" height="60" as="geometry" />
        </mxCell>
        <mxCell id="fquedlguML3Tx2x5SOF--55" value="" style="edgeStyle=orthogonalEdgeStyle;rounded=0;orthogonalLoop=1;jettySize=auto;html=1;" edge="1" parent="1" source="fquedlguML3Tx2x5SOF--56" target="fquedlguML3Tx2x5SOF--58">
          <mxGeometry relative="1" as="geometry" />
        </mxCell>
        <mxCell id="fquedlguML3Tx2x5SOF--56" value="顯示教室狀態" style="whiteSpace=wrap;html=1;" vertex="1" parent="1">
          <mxGeometry x="2739" y="435" width="120" height="60" as="geometry" />
        </mxCell>
        <mxCell id="fquedlguML3Tx2x5SOF--57" value="" style="edgeStyle=orthogonalEdgeStyle;rounded=0;orthogonalLoop=1;jettySize=auto;html=1;" edge="1" parent="1" source="fquedlguML3Tx2x5SOF--58" target="fquedlguML3Tx2x5SOF--63">
          <mxGeometry relative="1" as="geometry" />
        </mxCell>
        <mxCell id="fquedlguML3Tx2x5SOF--58" value="輸入時間" style="whiteSpace=wrap;html=1;" vertex="1" parent="1">
          <mxGeometry x="2739" y="575" width="120" height="60" as="geometry" />
        </mxCell>
        <mxCell id="fquedlguML3Tx2x5SOF--59" style="edgeStyle=orthogonalEdgeStyle;rounded=0;orthogonalLoop=1;jettySize=auto;html=1;entryX=1;entryY=0.5;entryDx=0;entryDy=0;" edge="1" parent="1" source="fquedlguML3Tx2x5SOF--63" target="fquedlguML3Tx2x5SOF--56">
          <mxGeometry relative="1" as="geometry">
            <Array as="points">
              <mxPoint x="2900" y="745" />
              <mxPoint x="2900" y="465" />
            </Array>
          </mxGeometry>
        </mxCell>
        <mxCell id="fquedlguML3Tx2x5SOF--60" value="Yes" style="edgeLabel;html=1;align=center;verticalAlign=middle;resizable=0;points=[];" vertex="1" connectable="0" parent="fquedlguML3Tx2x5SOF--59">
          <mxGeometry x="-0.8392" relative="1" as="geometry">
            <mxPoint as="offset" />
          </mxGeometry>
        </mxCell>
        <mxCell id="fquedlguML3Tx2x5SOF--61" style="edgeStyle=orthogonalEdgeStyle;rounded=0;orthogonalLoop=1;jettySize=auto;html=1;entryX=0;entryY=0.5;entryDx=0;entryDy=0;" edge="1" parent="1" source="fquedlguML3Tx2x5SOF--63" target="fquedlguML3Tx2x5SOF--58">
          <mxGeometry relative="1" as="geometry">
            <Array as="points">
              <mxPoint x="2710" y="745" />
              <mxPoint x="2710" y="605" />
            </Array>
          </mxGeometry>
        </mxCell>
        <mxCell id="fquedlguML3Tx2x5SOF--62" value="No" style="edgeLabel;html=1;align=center;verticalAlign=middle;resizable=0;points=[];" vertex="1" connectable="0" parent="fquedlguML3Tx2x5SOF--61">
          <mxGeometry x="-0.8105" y="-3" relative="1" as="geometry">
            <mxPoint x="-1" y="3" as="offset" />
          </mxGeometry>
        </mxCell>
        <mxCell id="fquedlguML3Tx2x5SOF--63" value="格式是否符合" style="rhombus;whiteSpace=wrap;html=1;" vertex="1" parent="1">
          <mxGeometry x="2759" y="705" width="80" height="80" as="geometry" />
        </mxCell>
        <mxCell id="fquedlguML3Tx2x5SOF--64" value="" style="edgeStyle=orthogonalEdgeStyle;rounded=0;orthogonalLoop=1;jettySize=auto;html=1;" edge="1" parent="1">
          <mxGeometry relative="1" as="geometry">
            <mxPoint x="2545.06" y="635" as="sourcePoint" />
            <mxPoint x="2545" y="715" as="targetPoint" />
          </mxGeometry>
        </mxCell>
        <mxCell id="fquedlguML3Tx2x5SOF--65" value="" style="verticalLabelPosition=bottom;verticalAlign=top;html=1;shape=mxgraph.basic.donut;dx=25;" vertex="1" parent="1">
          <mxGeometry x="2500" y="715" width="90" height="90" as="geometry" />
        </mxCell>
        <mxCell id="fquedlguML3Tx2x5SOF--66" value="" style="edgeStyle=orthogonalEdgeStyle;rounded=0;orthogonalLoop=1;jettySize=auto;html=1;" edge="1" parent="1">
          <mxGeometry relative="1" as="geometry">
            <mxPoint x="2799.06" y="785" as="sourcePoint" />
            <mxPoint x="2799" y="865" as="targetPoint" />
          </mxGeometry>
        </mxCell>
        <mxCell id="fquedlguML3Tx2x5SOF--67" value="" style="edgeStyle=orthogonalEdgeStyle;rounded=0;orthogonalLoop=1;jettySize=auto;html=1;" edge="1" parent="1" source="fquedlguML3Tx2x5SOF--68" target="fquedlguML3Tx2x5SOF--70">
          <mxGeometry relative="1" as="geometry" />
        </mxCell>
        <mxCell id="fquedlguML3Tx2x5SOF--68" value="" style="ellipse;whiteSpace=wrap;html=1;aspect=fixed;" vertex="1" parent="1">
          <mxGeometry x="3004" width="70" height="70" as="geometry" />
        </mxCell>
        <mxCell id="fquedlguML3Tx2x5SOF--69" value="" style="edgeStyle=orthogonalEdgeStyle;rounded=0;orthogonalLoop=1;jettySize=auto;html=1;" edge="1" parent="1" source="fquedlguML3Tx2x5SOF--70" target="fquedlguML3Tx2x5SOF--72">
          <mxGeometry relative="1" as="geometry" />
        </mxCell>
        <mxCell id="fquedlguML3Tx2x5SOF--70" value="打開教室查詢頁面" style="whiteSpace=wrap;html=1;" vertex="1" parent="1">
          <mxGeometry x="2979" y="155" width="120" height="60" as="geometry" />
        </mxCell>
        <mxCell id="fquedlguML3Tx2x5SOF--71" value="" style="edgeStyle=orthogonalEdgeStyle;rounded=0;orthogonalLoop=1;jettySize=auto;html=1;" edge="1" parent="1" source="fquedlguML3Tx2x5SOF--72" target="fquedlguML3Tx2x5SOF--74">
          <mxGeometry relative="1" as="geometry" />
        </mxCell>
        <mxCell id="fquedlguML3Tx2x5SOF--72" value="按下申請按鈕" style="whiteSpace=wrap;html=1;" vertex="1" parent="1">
          <mxGeometry x="2979" y="295" width="120" height="60" as="geometry" />
        </mxCell>
        <mxCell id="fquedlguML3Tx2x5SOF--73" value="" style="edgeStyle=orthogonalEdgeStyle;rounded=0;orthogonalLoop=1;jettySize=auto;html=1;" edge="1" parent="1" source="fquedlguML3Tx2x5SOF--74" target="fquedlguML3Tx2x5SOF--76">
          <mxGeometry relative="1" as="geometry" />
        </mxCell>
        <mxCell id="fquedlguML3Tx2x5SOF--74" value="填入申請資料" style="whiteSpace=wrap;html=1;" vertex="1" parent="1">
          <mxGeometry x="2979" y="435" width="120" height="60" as="geometry" />
        </mxCell>
        <mxCell id="fquedlguML3Tx2x5SOF--75" value="" style="edgeStyle=orthogonalEdgeStyle;rounded=0;orthogonalLoop=1;jettySize=auto;html=1;" edge="1" parent="1" source="fquedlguML3Tx2x5SOF--76" target="fquedlguML3Tx2x5SOF--79">
          <mxGeometry relative="1" as="geometry" />
        </mxCell>
        <mxCell id="fquedlguML3Tx2x5SOF--76" value="按下申請按鈕" style="whiteSpace=wrap;html=1;" vertex="1" parent="1">
          <mxGeometry x="2979" y="575" width="120" height="60" as="geometry" />
        </mxCell>
        <mxCell id="fquedlguML3Tx2x5SOF--77" style="edgeStyle=orthogonalEdgeStyle;rounded=0;orthogonalLoop=1;jettySize=auto;html=1;entryX=1;entryY=0.5;entryDx=0;entryDy=0;" edge="1" parent="1" source="fquedlguML3Tx2x5SOF--79" target="fquedlguML3Tx2x5SOF--74">
          <mxGeometry relative="1" as="geometry">
            <Array as="points">
              <mxPoint x="3120" y="745" />
              <mxPoint x="3120" y="465" />
            </Array>
          </mxGeometry>
        </mxCell>
        <mxCell id="fquedlguML3Tx2x5SOF--78" value="No" style="edgeLabel;html=1;align=center;verticalAlign=middle;resizable=0;points=[];" vertex="1" connectable="0" parent="fquedlguML3Tx2x5SOF--77">
          <mxGeometry x="-0.8906" relative="1" as="geometry">
            <mxPoint as="offset" />
          </mxGeometry>
        </mxCell>
        <mxCell id="fquedlguML3Tx2x5SOF--79" value="格式是否符合" style="rhombus;whiteSpace=wrap;html=1;" vertex="1" parent="1">
          <mxGeometry x="2999" y="705" width="80" height="80" as="geometry" />
        </mxCell>
        <mxCell id="fquedlguML3Tx2x5SOF--80" value="" style="edgeStyle=orthogonalEdgeStyle;rounded=0;orthogonalLoop=1;jettySize=auto;html=1;" edge="1" parent="1">
          <mxGeometry relative="1" as="geometry">
            <mxPoint x="3039.06" y="785" as="sourcePoint" />
            <mxPoint x="3039" y="865" as="targetPoint" />
          </mxGeometry>
        </mxCell>
        <mxCell id="fquedlguML3Tx2x5SOF--81" value="Yes" style="edgeLabel;html=1;align=center;verticalAlign=middle;resizable=0;points=[];" vertex="1" connectable="0" parent="fquedlguML3Tx2x5SOF--80">
          <mxGeometry x="-0.1086" y="-1" relative="1" as="geometry">
            <mxPoint y="1" as="offset" />
          </mxGeometry>
        </mxCell>
        <mxCell id="fquedlguML3Tx2x5SOF--82" value="" style="edgeStyle=orthogonalEdgeStyle;rounded=0;orthogonalLoop=1;jettySize=auto;html=1;" edge="1" parent="1" source="fquedlguML3Tx2x5SOF--83" target="fquedlguML3Tx2x5SOF--85">
          <mxGeometry relative="1" as="geometry" />
        </mxCell>
        <mxCell id="fquedlguML3Tx2x5SOF--83" value="" style="ellipse;whiteSpace=wrap;html=1;aspect=fixed;" vertex="1" parent="1">
          <mxGeometry x="3205" width="70" height="70" as="geometry" />
        </mxCell>
        <mxCell id="fquedlguML3Tx2x5SOF--84" value="" style="edgeStyle=orthogonalEdgeStyle;rounded=0;orthogonalLoop=1;jettySize=auto;html=1;" edge="1" parent="1" source="fquedlguML3Tx2x5SOF--85" target="fquedlguML3Tx2x5SOF--87">
          <mxGeometry relative="1" as="geometry" />
        </mxCell>
        <mxCell id="fquedlguML3Tx2x5SOF--85" value="打開教室查詢頁面" style="whiteSpace=wrap;html=1;" vertex="1" parent="1">
          <mxGeometry x="3180" y="155" width="120" height="60" as="geometry" />
        </mxCell>
        <mxCell id="fquedlguML3Tx2x5SOF--86" value="" style="edgeStyle=orthogonalEdgeStyle;rounded=0;orthogonalLoop=1;jettySize=auto;html=1;" edge="1" parent="1" source="fquedlguML3Tx2x5SOF--87" target="fquedlguML3Tx2x5SOF--89">
          <mxGeometry relative="1" as="geometry" />
        </mxCell>
        <mxCell id="fquedlguML3Tx2x5SOF--87" value="按下禁用教室按鈕" style="whiteSpace=wrap;html=1;" vertex="1" parent="1">
          <mxGeometry x="3175" y="295" width="130" height="60" as="geometry" />
        </mxCell>
        <mxCell id="fquedlguML3Tx2x5SOF--88" value="" style="edgeStyle=orthogonalEdgeStyle;rounded=0;orthogonalLoop=1;jettySize=auto;html=1;" edge="1" parent="1" source="fquedlguML3Tx2x5SOF--89" target="fquedlguML3Tx2x5SOF--91">
          <mxGeometry relative="1" as="geometry" />
        </mxCell>
        <mxCell id="fquedlguML3Tx2x5SOF--89" value="填入教室狀態資料" style="whiteSpace=wrap;html=1;" vertex="1" parent="1">
          <mxGeometry x="3180" y="435" width="120" height="60" as="geometry" />
        </mxCell>
        <mxCell id="fquedlguML3Tx2x5SOF--90" value="" style="edgeStyle=orthogonalEdgeStyle;rounded=0;orthogonalLoop=1;jettySize=auto;html=1;" edge="1" parent="1" source="fquedlguML3Tx2x5SOF--91" target="fquedlguML3Tx2x5SOF--94">
          <mxGeometry relative="1" as="geometry" />
        </mxCell>
        <mxCell id="fquedlguML3Tx2x5SOF--91" value="按下確定按鈕" style="whiteSpace=wrap;html=1;" vertex="1" parent="1">
          <mxGeometry x="3180" y="575" width="120" height="60" as="geometry" />
        </mxCell>
        <mxCell id="fquedlguML3Tx2x5SOF--92" style="edgeStyle=orthogonalEdgeStyle;rounded=0;orthogonalLoop=1;jettySize=auto;html=1;entryX=1;entryY=0.5;entryDx=0;entryDy=0;" edge="1" parent="1" source="fquedlguML3Tx2x5SOF--94" target="fquedlguML3Tx2x5SOF--89">
          <mxGeometry relative="1" as="geometry">
            <Array as="points">
              <mxPoint x="3321" y="745" />
              <mxPoint x="3321" y="465" />
            </Array>
          </mxGeometry>
        </mxCell>
        <mxCell id="fquedlguML3Tx2x5SOF--93" value="No" style="edgeLabel;html=1;align=center;verticalAlign=middle;resizable=0;points=[];" vertex="1" connectable="0" parent="fquedlguML3Tx2x5SOF--92">
          <mxGeometry x="-0.8906" relative="1" as="geometry">
            <mxPoint as="offset" />
          </mxGeometry>
        </mxCell>
        <mxCell id="fquedlguML3Tx2x5SOF--94" value="格式是否符合" style="rhombus;whiteSpace=wrap;html=1;" vertex="1" parent="1">
          <mxGeometry x="3200" y="705" width="80" height="80" as="geometry" />
        </mxCell>
        <mxCell id="fquedlguML3Tx2x5SOF--95" value="" style="edgeStyle=orthogonalEdgeStyle;rounded=0;orthogonalLoop=1;jettySize=auto;html=1;" edge="1" parent="1">
          <mxGeometry relative="1" as="geometry">
            <mxPoint x="3240.06" y="785" as="sourcePoint" />
            <mxPoint x="3240" y="865" as="targetPoint" />
          </mxGeometry>
        </mxCell>
        <mxCell id="fquedlguML3Tx2x5SOF--96" value="Yes" style="edgeLabel;html=1;align=center;verticalAlign=middle;resizable=0;points=[];" vertex="1" connectable="0" parent="fquedlguML3Tx2x5SOF--95">
          <mxGeometry x="-0.1086" y="-1" relative="1" as="geometry">
            <mxPoint y="1" as="offset" />
          </mxGeometry>
        </mxCell>
        <mxCell id="fquedlguML3Tx2x5SOF--97" value="" style="edgeStyle=orthogonalEdgeStyle;rounded=0;orthogonalLoop=1;jettySize=auto;html=1;" edge="1" parent="1" source="fquedlguML3Tx2x5SOF--98" target="fquedlguML3Tx2x5SOF--100">
          <mxGeometry relative="1" as="geometry" />
        </mxCell>
        <mxCell id="fquedlguML3Tx2x5SOF--98" value="" style="ellipse;whiteSpace=wrap;html=1;aspect=fixed;" vertex="1" parent="1">
          <mxGeometry x="3570" width="70" height="70" as="geometry" />
        </mxCell>
        <mxCell id="fquedlguML3Tx2x5SOF--99" value="" style="edgeStyle=orthogonalEdgeStyle;rounded=0;orthogonalLoop=1;jettySize=auto;html=1;" edge="1" parent="1" source="fquedlguML3Tx2x5SOF--100" target="fquedlguML3Tx2x5SOF--102">
          <mxGeometry relative="1" as="geometry" />
        </mxCell>
        <mxCell id="fquedlguML3Tx2x5SOF--100" value="打開教室查詢頁面" style="whiteSpace=wrap;html=1;" vertex="1" parent="1">
          <mxGeometry x="3545" y="155" width="120" height="60" as="geometry" />
        </mxCell>
        <mxCell id="fquedlguML3Tx2x5SOF--101" value="" style="edgeStyle=orthogonalEdgeStyle;rounded=0;orthogonalLoop=1;jettySize=auto;html=1;" edge="1" parent="1" source="fquedlguML3Tx2x5SOF--102" target="fquedlguML3Tx2x5SOF--104">
          <mxGeometry relative="1" as="geometry" />
        </mxCell>
        <mxCell id="fquedlguML3Tx2x5SOF--102" value="按下更改鑰匙狀態按鈕" style="whiteSpace=wrap;html=1;" vertex="1" parent="1">
          <mxGeometry x="3540" y="295" width="130" height="60" as="geometry" />
        </mxCell>
        <mxCell id="fquedlguML3Tx2x5SOF--103" value="" style="edgeStyle=orthogonalEdgeStyle;rounded=0;orthogonalLoop=1;jettySize=auto;html=1;" edge="1" parent="1" source="fquedlguML3Tx2x5SOF--104" target="fquedlguML3Tx2x5SOF--106">
          <mxGeometry relative="1" as="geometry" />
        </mxCell>
        <mxCell id="fquedlguML3Tx2x5SOF--104" value="填入鑰匙狀態資料" style="whiteSpace=wrap;html=1;" vertex="1" parent="1">
          <mxGeometry x="3545" y="435" width="120" height="60" as="geometry" />
        </mxCell>
        <mxCell id="fquedlguML3Tx2x5SOF--105" value="" style="edgeStyle=orthogonalEdgeStyle;rounded=0;orthogonalLoop=1;jettySize=auto;html=1;" edge="1" parent="1" source="fquedlguML3Tx2x5SOF--106">
          <mxGeometry relative="1" as="geometry">
            <mxPoint x="3605" y="705" as="targetPoint" />
          </mxGeometry>
        </mxCell>
        <mxCell id="fquedlguML3Tx2x5SOF--106" value="按下確定按鈕" style="whiteSpace=wrap;html=1;" vertex="1" parent="1">
          <mxGeometry x="3545" y="575" width="120" height="60" as="geometry" />
        </mxCell>
        <mxCell id="fquedlguML3Tx2x5SOF--107" value="" style="edgeStyle=orthogonalEdgeStyle;rounded=0;orthogonalLoop=1;jettySize=auto;html=1;" edge="1" parent="1" source="fquedlguML3Tx2x5SOF--108" target="fquedlguML3Tx2x5SOF--110">
          <mxGeometry relative="1" as="geometry" />
        </mxCell>
        <mxCell id="fquedlguML3Tx2x5SOF--108" value="" style="ellipse;whiteSpace=wrap;html=1;aspect=fixed;" vertex="1" parent="1">
          <mxGeometry x="3850" width="70" height="70" as="geometry" />
        </mxCell>
        <mxCell id="fquedlguML3Tx2x5SOF--109" value="" style="edgeStyle=orthogonalEdgeStyle;rounded=0;orthogonalLoop=1;jettySize=auto;html=1;" edge="1" parent="1" source="fquedlguML3Tx2x5SOF--110" target="fquedlguML3Tx2x5SOF--112">
          <mxGeometry relative="1" as="geometry" />
        </mxCell>
        <mxCell id="fquedlguML3Tx2x5SOF--110" value="打開審核申請頁面" style="whiteSpace=wrap;html=1;" vertex="1" parent="1">
          <mxGeometry x="3825" y="155" width="120" height="60" as="geometry" />
        </mxCell>
        <mxCell id="fquedlguML3Tx2x5SOF--111" value="" style="edgeStyle=orthogonalEdgeStyle;rounded=0;orthogonalLoop=1;jettySize=auto;html=1;" edge="1" parent="1" source="fquedlguML3Tx2x5SOF--112" target="fquedlguML3Tx2x5SOF--113">
          <mxGeometry relative="1" as="geometry" />
        </mxCell>
        <mxCell id="fquedlguML3Tx2x5SOF--112" value="顯示申請列表" style="whiteSpace=wrap;html=1;" vertex="1" parent="1">
          <mxGeometry x="3820" y="295" width="130" height="60" as="geometry" />
        </mxCell>
        <mxCell id="fquedlguML3Tx2x5SOF--113" value="" style="whiteSpace=wrap;html=1;" vertex="1" parent="1">
          <mxGeometry x="3750" y="435" width="270" height="60" as="geometry" />
        </mxCell>
        <mxCell id="fquedlguML3Tx2x5SOF--114" value="" style="edgeStyle=orthogonalEdgeStyle;rounded=0;orthogonalLoop=1;jettySize=auto;html=1;" edge="1" parent="1">
          <mxGeometry relative="1" as="geometry">
            <mxPoint x="3820" y="495" as="sourcePoint" />
            <mxPoint x="3820" y="575" as="targetPoint" />
          </mxGeometry>
        </mxCell>
        <mxCell id="fquedlguML3Tx2x5SOF--115" value="" style="edgeStyle=orthogonalEdgeStyle;rounded=0;orthogonalLoop=1;jettySize=auto;html=1;" edge="1" parent="1">
          <mxGeometry relative="1" as="geometry">
            <mxPoint x="3950" y="495" as="sourcePoint" />
            <mxPoint x="3950" y="575" as="targetPoint" />
          </mxGeometry>
        </mxCell>
        <mxCell id="fquedlguML3Tx2x5SOF--116" value="按下同意按鈕" style="whiteSpace=wrap;html=1;" vertex="1" parent="1">
          <mxGeometry x="3760" y="575" width="120" height="60" as="geometry" />
        </mxCell>
        <mxCell id="fquedlguML3Tx2x5SOF--117" value="按下不同意按鈕" style="whiteSpace=wrap;html=1;" vertex="1" parent="1">
          <mxGeometry x="3890" y="575" width="120" height="60" as="geometry" />
        </mxCell>
        <mxCell id="fquedlguML3Tx2x5SOF--118" value="" style="edgeStyle=orthogonalEdgeStyle;rounded=0;orthogonalLoop=1;jettySize=auto;html=1;entryX=0.501;entryY=0;entryDx=0;entryDy=0;entryPerimeter=0;" edge="1" parent="1" target="fquedlguML3Tx2x5SOF--35">
          <mxGeometry relative="1" as="geometry">
            <mxPoint x="1999.65" y="635" as="sourcePoint" />
            <mxPoint x="2000" y="680" as="targetPoint" />
          </mxGeometry>
        </mxCell>
        <mxCell id="fquedlguML3Tx2x5SOF--119" value="更新資料庫" style="whiteSpace=wrap;html=1;" vertex="1" parent="1">
          <mxGeometry x="2739" y="865" width="120" height="60" as="geometry" />
        </mxCell>
        <mxCell id="fquedlguML3Tx2x5SOF--120" value="" style="verticalLabelPosition=bottom;verticalAlign=top;html=1;shape=mxgraph.basic.donut;dx=25;" vertex="1" parent="1">
          <mxGeometry x="2754" y="1020" width="90" height="90" as="geometry" />
        </mxCell>
        <mxCell id="fquedlguML3Tx2x5SOF--121" style="edgeStyle=orthogonalEdgeStyle;rounded=0;orthogonalLoop=1;jettySize=auto;html=1;entryX=0.499;entryY=-0.002;entryDx=0;entryDy=0;entryPerimeter=0;" edge="1" parent="1" target="fquedlguML3Tx2x5SOF--120">
          <mxGeometry relative="1" as="geometry">
            <mxPoint x="2799" y="925" as="sourcePoint" />
          </mxGeometry>
        </mxCell>
        <mxCell id="fquedlguML3Tx2x5SOF--122" value="更新資料庫" style="whiteSpace=wrap;html=1;" vertex="1" parent="1">
          <mxGeometry x="2979" y="865" width="120" height="60" as="geometry" />
        </mxCell>
        <mxCell id="fquedlguML3Tx2x5SOF--123" value="" style="verticalLabelPosition=bottom;verticalAlign=top;html=1;shape=mxgraph.basic.donut;dx=25;" vertex="1" parent="1">
          <mxGeometry x="2994" y="1020" width="90" height="90" as="geometry" />
        </mxCell>
        <mxCell id="fquedlguML3Tx2x5SOF--124" style="edgeStyle=orthogonalEdgeStyle;rounded=0;orthogonalLoop=1;jettySize=auto;html=1;entryX=0.499;entryY=-0.002;entryDx=0;entryDy=0;entryPerimeter=0;" edge="1" parent="1" target="fquedlguML3Tx2x5SOF--123">
          <mxGeometry relative="1" as="geometry">
            <mxPoint x="3039" y="925" as="sourcePoint" />
          </mxGeometry>
        </mxCell>
        <mxCell id="fquedlguML3Tx2x5SOF--125" value="更新資料庫" style="whiteSpace=wrap;html=1;" vertex="1" parent="1">
          <mxGeometry x="3180" y="865" width="120" height="60" as="geometry" />
        </mxCell>
        <mxCell id="fquedlguML3Tx2x5SOF--126" value="" style="verticalLabelPosition=bottom;verticalAlign=top;html=1;shape=mxgraph.basic.donut;dx=25;" vertex="1" parent="1">
          <mxGeometry x="3195" y="1020" width="90" height="90" as="geometry" />
        </mxCell>
        <mxCell id="fquedlguML3Tx2x5SOF--127" style="edgeStyle=orthogonalEdgeStyle;rounded=0;orthogonalLoop=1;jettySize=auto;html=1;entryX=0.499;entryY=-0.002;entryDx=0;entryDy=0;entryPerimeter=0;" edge="1" parent="1" target="fquedlguML3Tx2x5SOF--126">
          <mxGeometry relative="1" as="geometry">
            <mxPoint x="3240" y="925" as="sourcePoint" />
          </mxGeometry>
        </mxCell>
        <mxCell id="fquedlguML3Tx2x5SOF--128" value="更新資料庫" style="whiteSpace=wrap;html=1;" vertex="1" parent="1">
          <mxGeometry x="3545" y="705" width="120" height="60" as="geometry" />
        </mxCell>
        <mxCell id="fquedlguML3Tx2x5SOF--129" value="" style="verticalLabelPosition=bottom;verticalAlign=top;html=1;shape=mxgraph.basic.donut;dx=25;" vertex="1" parent="1">
          <mxGeometry x="3560" y="860" width="90" height="90" as="geometry" />
        </mxCell>
        <mxCell id="fquedlguML3Tx2x5SOF--130" style="edgeStyle=orthogonalEdgeStyle;rounded=0;orthogonalLoop=1;jettySize=auto;html=1;entryX=0.499;entryY=-0.002;entryDx=0;entryDy=0;entryPerimeter=0;" edge="1" parent="1" target="fquedlguML3Tx2x5SOF--129">
          <mxGeometry relative="1" as="geometry">
            <mxPoint x="3605" y="765" as="sourcePoint" />
          </mxGeometry>
        </mxCell>
        <mxCell id="fquedlguML3Tx2x5SOF--131" value="" style="edgeStyle=orthogonalEdgeStyle;rounded=0;orthogonalLoop=1;jettySize=auto;html=1;" edge="1" parent="1" source="fquedlguML3Tx2x5SOF--132" target="fquedlguML3Tx2x5SOF--135">
          <mxGeometry relative="1" as="geometry" />
        </mxCell>
        <mxCell id="fquedlguML3Tx2x5SOF--132" value="" style="whiteSpace=wrap;html=1;" vertex="1" parent="1">
          <mxGeometry x="3750" y="725" width="270" height="60" as="geometry" />
        </mxCell>
        <mxCell id="fquedlguML3Tx2x5SOF--133" style="edgeStyle=orthogonalEdgeStyle;rounded=0;orthogonalLoop=1;jettySize=auto;html=1;entryX=0.261;entryY=0.02;entryDx=0;entryDy=0;entryPerimeter=0;" edge="1" parent="1" source="fquedlguML3Tx2x5SOF--116" target="fquedlguML3Tx2x5SOF--132">
          <mxGeometry relative="1" as="geometry" />
        </mxCell>
        <mxCell id="fquedlguML3Tx2x5SOF--134" style="edgeStyle=orthogonalEdgeStyle;rounded=0;orthogonalLoop=1;jettySize=auto;html=1;entryX=0.739;entryY=0.007;entryDx=0;entryDy=0;entryPerimeter=0;" edge="1" parent="1" source="fquedlguML3Tx2x5SOF--117" target="fquedlguML3Tx2x5SOF--132">
          <mxGeometry relative="1" as="geometry" />
        </mxCell>
        <mxCell id="fquedlguML3Tx2x5SOF--135" value="更新資料庫" style="whiteSpace=wrap;html=1;" vertex="1" parent="1">
          <mxGeometry x="3825" y="875" width="120" height="60" as="geometry" />
        </mxCell>
        <mxCell id="fquedlguML3Tx2x5SOF--136" value="" style="verticalLabelPosition=bottom;verticalAlign=top;html=1;shape=mxgraph.basic.donut;dx=25;" vertex="1" parent="1">
          <mxGeometry x="3840" y="1030" width="90" height="90" as="geometry" />
        </mxCell>
        <mxCell id="fquedlguML3Tx2x5SOF--137" style="edgeStyle=orthogonalEdgeStyle;rounded=0;orthogonalLoop=1;jettySize=auto;html=1;entryX=0.499;entryY=-0.002;entryDx=0;entryDy=0;entryPerimeter=0;" edge="1" parent="1" target="fquedlguML3Tx2x5SOF--136">
          <mxGeometry relative="1" as="geometry">
            <mxPoint x="3885" y="935" as="sourcePoint" />
          </mxGeometry>
        </mxCell>
        <mxCell id="fquedlguML3Tx2x5SOF--138" value="" style="edgeStyle=orthogonalEdgeStyle;rounded=0;orthogonalLoop=1;jettySize=auto;html=1;" edge="1" parent="1" source="fquedlguML3Tx2x5SOF--139" target="fquedlguML3Tx2x5SOF--141">
          <mxGeometry relative="1" as="geometry" />
        </mxCell>
        <mxCell id="fquedlguML3Tx2x5SOF--139" value="" style="ellipse;whiteSpace=wrap;html=1;aspect=fixed;" vertex="1" parent="1">
          <mxGeometry x="4130" width="70" height="70" as="geometry" />
        </mxCell>
        <mxCell id="fquedlguML3Tx2x5SOF--140" value="" style="edgeStyle=orthogonalEdgeStyle;rounded=0;orthogonalLoop=1;jettySize=auto;html=1;" edge="1" parent="1" source="fquedlguML3Tx2x5SOF--141" target="fquedlguML3Tx2x5SOF--143">
          <mxGeometry relative="1" as="geometry" />
        </mxCell>
        <mxCell id="fquedlguML3Tx2x5SOF--141" value="打開審核申請頁面" style="whiteSpace=wrap;html=1;" vertex="1" parent="1">
          <mxGeometry x="4105" y="155" width="120" height="60" as="geometry" />
        </mxCell>
        <mxCell id="fquedlguML3Tx2x5SOF--142" value="" style="edgeStyle=orthogonalEdgeStyle;rounded=0;orthogonalLoop=1;jettySize=auto;html=1;" edge="1" parent="1" source="fquedlguML3Tx2x5SOF--143">
          <mxGeometry relative="1" as="geometry">
            <mxPoint x="4165" y="435" as="targetPoint" />
          </mxGeometry>
        </mxCell>
        <mxCell id="fquedlguML3Tx2x5SOF--143" value="按下查看借用人按鈕" style="whiteSpace=wrap;html=1;" vertex="1" parent="1">
          <mxGeometry x="4100" y="295" width="130" height="60" as="geometry" />
        </mxCell>
        <mxCell id="fquedlguML3Tx2x5SOF--144" value="顯示借用人借用歷史" style="whiteSpace=wrap;html=1;" vertex="1" parent="1">
          <mxGeometry x="4100" y="435" width="130" height="60" as="geometry" />
        </mxCell>
        <mxCell id="fquedlguML3Tx2x5SOF--145" value="" style="edgeStyle=orthogonalEdgeStyle;rounded=0;orthogonalLoop=1;jettySize=auto;html=1;" edge="1" parent="1">
          <mxGeometry relative="1" as="geometry">
            <mxPoint x="4165" y="495" as="sourcePoint" />
            <mxPoint x="4165" y="585" as="targetPoint" />
          </mxGeometry>
        </mxCell>
        <mxCell id="fquedlguML3Tx2x5SOF--146" value="" style="verticalLabelPosition=bottom;verticalAlign=top;html=1;shape=mxgraph.basic.donut;dx=25;" vertex="1" parent="1">
          <mxGeometry x="4120" y="585" width="90" height="90" as="geometry" />
        </mxCell>
        <mxCell id="fquedlguML3Tx2x5SOF--147" value="" style="edgeStyle=orthogonalEdgeStyle;rounded=0;orthogonalLoop=1;jettySize=auto;html=1;" edge="1" parent="1" source="fquedlguML3Tx2x5SOF--148" target="fquedlguML3Tx2x5SOF--150">
          <mxGeometry relative="1" as="geometry" />
        </mxCell>
        <mxCell id="fquedlguML3Tx2x5SOF--148" value="" style="ellipse;whiteSpace=wrap;html=1;aspect=fixed;" vertex="1" parent="1">
          <mxGeometry x="4430" width="70" height="70" as="geometry" />
        </mxCell>
        <mxCell id="fquedlguML3Tx2x5SOF--149" value="" style="edgeStyle=orthogonalEdgeStyle;rounded=0;orthogonalLoop=1;jettySize=auto;html=1;" edge="1" parent="1" source="fquedlguML3Tx2x5SOF--150" target="fquedlguML3Tx2x5SOF--152">
          <mxGeometry relative="1" as="geometry" />
        </mxCell>
        <mxCell id="fquedlguML3Tx2x5SOF--150" value="打開使用者狀態頁面" style="whiteSpace=wrap;html=1;" vertex="1" parent="1">
          <mxGeometry x="4405" y="155" width="120" height="60" as="geometry" />
        </mxCell>
        <mxCell id="fquedlguML3Tx2x5SOF--151" value="" style="edgeStyle=orthogonalEdgeStyle;rounded=0;orthogonalLoop=1;jettySize=auto;html=1;" edge="1" parent="1" source="fquedlguML3Tx2x5SOF--152">
          <mxGeometry relative="1" as="geometry">
            <mxPoint x="4465" y="435" as="targetPoint" />
          </mxGeometry>
        </mxCell>
        <mxCell id="fquedlguML3Tx2x5SOF--152" value="顯示使用者列表" style="whiteSpace=wrap;html=1;" vertex="1" parent="1">
          <mxGeometry x="4400" y="295" width="130" height="60" as="geometry" />
        </mxCell>
        <mxCell id="fquedlguML3Tx2x5SOF--153" style="edgeStyle=orthogonalEdgeStyle;rounded=0;orthogonalLoop=1;jettySize=auto;html=1;entryX=1;entryY=0.5;entryDx=0;entryDy=0;" edge="1" parent="1" source="fquedlguML3Tx2x5SOF--155" target="fquedlguML3Tx2x5SOF--152">
          <mxGeometry relative="1" as="geometry">
            <Array as="points">
              <mxPoint x="4570" y="465" />
              <mxPoint x="4570" y="325" />
            </Array>
          </mxGeometry>
        </mxCell>
        <mxCell id="fquedlguML3Tx2x5SOF--154" value="限制" style="edgeLabel;html=1;align=center;verticalAlign=middle;resizable=0;points=[];" vertex="1" connectable="0" parent="fquedlguML3Tx2x5SOF--153">
          <mxGeometry x="-0.813" relative="1" as="geometry">
            <mxPoint as="offset" />
          </mxGeometry>
        </mxCell>
        <mxCell id="fquedlguML3Tx2x5SOF--155" value="關鍵字查詢" style="whiteSpace=wrap;html=1;" vertex="1" parent="1">
          <mxGeometry x="4400" y="435" width="130" height="60" as="geometry" />
        </mxCell>
        <mxCell id="fquedlguML3Tx2x5SOF--156" value="" style="edgeStyle=orthogonalEdgeStyle;rounded=0;orthogonalLoop=1;jettySize=auto;html=1;" edge="1" parent="1">
          <mxGeometry relative="1" as="geometry">
            <mxPoint x="4465" y="495" as="sourcePoint" />
            <mxPoint x="4465" y="585" as="targetPoint" />
          </mxGeometry>
        </mxCell>
        <mxCell id="fquedlguML3Tx2x5SOF--157" value="" style="verticalLabelPosition=bottom;verticalAlign=top;html=1;shape=mxgraph.basic.donut;dx=25;" vertex="1" parent="1">
          <mxGeometry x="4420" y="585" width="90" height="90" as="geometry" />
        </mxCell>
        <mxCell id="fquedlguML3Tx2x5SOF--158" value="" style="edgeStyle=orthogonalEdgeStyle;rounded=0;orthogonalLoop=1;jettySize=auto;html=1;" edge="1" parent="1" source="fquedlguML3Tx2x5SOF--159" target="fquedlguML3Tx2x5SOF--161">
          <mxGeometry relative="1" as="geometry" />
        </mxCell>
        <mxCell id="fquedlguML3Tx2x5SOF--159" value="" style="ellipse;whiteSpace=wrap;html=1;aspect=fixed;" vertex="1" parent="1">
          <mxGeometry x="4635" width="70" height="70" as="geometry" />
        </mxCell>
        <mxCell id="fquedlguML3Tx2x5SOF--160" value="" style="edgeStyle=orthogonalEdgeStyle;rounded=0;orthogonalLoop=1;jettySize=auto;html=1;" edge="1" parent="1" source="fquedlguML3Tx2x5SOF--161" target="fquedlguML3Tx2x5SOF--163">
          <mxGeometry relative="1" as="geometry" />
        </mxCell>
        <mxCell id="fquedlguML3Tx2x5SOF--161" value="打開使用者狀態頁面" style="whiteSpace=wrap;html=1;" vertex="1" parent="1">
          <mxGeometry x="4610" y="155" width="120" height="60" as="geometry" />
        </mxCell>
        <mxCell id="fquedlguML3Tx2x5SOF--162" value="" style="edgeStyle=orthogonalEdgeStyle;rounded=0;orthogonalLoop=1;jettySize=auto;html=1;" edge="1" parent="1" source="fquedlguML3Tx2x5SOF--163" target="fquedlguML3Tx2x5SOF--165">
          <mxGeometry relative="1" as="geometry" />
        </mxCell>
        <mxCell id="fquedlguML3Tx2x5SOF--163" value="按下更改使用者狀態按鈕" style="whiteSpace=wrap;html=1;" vertex="1" parent="1">
          <mxGeometry x="4600" y="295" width="140" height="60" as="geometry" />
        </mxCell>
        <mxCell id="fquedlguML3Tx2x5SOF--164" value="" style="edgeStyle=orthogonalEdgeStyle;rounded=0;orthogonalLoop=1;jettySize=auto;html=1;" edge="1" parent="1" source="fquedlguML3Tx2x5SOF--165" target="fquedlguML3Tx2x5SOF--167">
          <mxGeometry relative="1" as="geometry" />
        </mxCell>
        <mxCell id="fquedlguML3Tx2x5SOF--165" value="填入使用者狀態資料" style="whiteSpace=wrap;html=1;" vertex="1" parent="1">
          <mxGeometry x="4610" y="435" width="120" height="60" as="geometry" />
        </mxCell>
        <mxCell id="fquedlguML3Tx2x5SOF--166" value="" style="edgeStyle=orthogonalEdgeStyle;rounded=0;orthogonalLoop=1;jettySize=auto;html=1;" edge="1" parent="1" source="fquedlguML3Tx2x5SOF--167" target="fquedlguML3Tx2x5SOF--170">
          <mxGeometry relative="1" as="geometry" />
        </mxCell>
        <mxCell id="fquedlguML3Tx2x5SOF--167" value="按下確定按鈕" style="whiteSpace=wrap;html=1;" vertex="1" parent="1">
          <mxGeometry x="4610" y="575" width="120" height="60" as="geometry" />
        </mxCell>
        <mxCell id="fquedlguML3Tx2x5SOF--168" style="edgeStyle=orthogonalEdgeStyle;rounded=0;orthogonalLoop=1;jettySize=auto;html=1;entryX=1;entryY=0.5;entryDx=0;entryDy=0;" edge="1" parent="1" source="fquedlguML3Tx2x5SOF--170" target="fquedlguML3Tx2x5SOF--165">
          <mxGeometry relative="1" as="geometry">
            <Array as="points">
              <mxPoint x="4751" y="745" />
              <mxPoint x="4751" y="465" />
            </Array>
          </mxGeometry>
        </mxCell>
        <mxCell id="fquedlguML3Tx2x5SOF--169" value="No" style="edgeLabel;html=1;align=center;verticalAlign=middle;resizable=0;points=[];" vertex="1" connectable="0" parent="fquedlguML3Tx2x5SOF--168">
          <mxGeometry x="-0.8906" relative="1" as="geometry">
            <mxPoint as="offset" />
          </mxGeometry>
        </mxCell>
        <mxCell id="fquedlguML3Tx2x5SOF--170" value="格式是否符合" style="rhombus;whiteSpace=wrap;html=1;" vertex="1" parent="1">
          <mxGeometry x="4630" y="705" width="80" height="80" as="geometry" />
        </mxCell>
        <mxCell id="fquedlguML3Tx2x5SOF--171" value="" style="edgeStyle=orthogonalEdgeStyle;rounded=0;orthogonalLoop=1;jettySize=auto;html=1;" edge="1" parent="1">
          <mxGeometry relative="1" as="geometry">
            <mxPoint x="4670.0599999999995" y="785" as="sourcePoint" />
            <mxPoint x="4670" y="865" as="targetPoint" />
          </mxGeometry>
        </mxCell>
        <mxCell id="fquedlguML3Tx2x5SOF--172" value="Yes" style="edgeLabel;html=1;align=center;verticalAlign=middle;resizable=0;points=[];" vertex="1" connectable="0" parent="fquedlguML3Tx2x5SOF--171">
          <mxGeometry x="-0.1086" y="-1" relative="1" as="geometry">
            <mxPoint y="1" as="offset" />
          </mxGeometry>
        </mxCell>
        <mxCell id="fquedlguML3Tx2x5SOF--173" value="更新資料庫" style="whiteSpace=wrap;html=1;" vertex="1" parent="1">
          <mxGeometry x="4610" y="865" width="120" height="60" as="geometry" />
        </mxCell>
        <mxCell id="fquedlguML3Tx2x5SOF--174" value="" style="verticalLabelPosition=bottom;verticalAlign=top;html=1;shape=mxgraph.basic.donut;dx=25;" vertex="1" parent="1">
          <mxGeometry x="4625" y="1020" width="90" height="90" as="geometry" />
        </mxCell>
        <mxCell id="fquedlguML3Tx2x5SOF--175" style="edgeStyle=orthogonalEdgeStyle;rounded=0;orthogonalLoop=1;jettySize=auto;html=1;entryX=0.499;entryY=-0.002;entryDx=0;entryDy=0;entryPerimeter=0;" edge="1" parent="1" target="fquedlguML3Tx2x5SOF--174">
          <mxGeometry relative="1" as="geometry">
            <mxPoint x="4670" y="925" as="sourcePoint" />
          </mxGeometry>
        </mxCell>
        <mxCell id="fquedlguML3Tx2x5SOF--176" value="" style="edgeStyle=orthogonalEdgeStyle;rounded=0;orthogonalLoop=1;jettySize=auto;html=1;" edge="1" parent="1" source="fquedlguML3Tx2x5SOF--177" target="fquedlguML3Tx2x5SOF--179">
          <mxGeometry relative="1" as="geometry" />
        </mxCell>
        <mxCell id="fquedlguML3Tx2x5SOF--177" value="" style="ellipse;whiteSpace=wrap;html=1;aspect=fixed;" vertex="1" parent="1">
          <mxGeometry x="5102.5" y="2.5" width="70" height="70" as="geometry" />
        </mxCell>
        <mxCell id="fquedlguML3Tx2x5SOF--178" value="" style="edgeStyle=orthogonalEdgeStyle;rounded=0;orthogonalLoop=1;jettySize=auto;html=1;" edge="1" parent="1" source="fquedlguML3Tx2x5SOF--179" target="fquedlguML3Tx2x5SOF--181">
          <mxGeometry relative="1" as="geometry" />
        </mxCell>
        <mxCell id="fquedlguML3Tx2x5SOF--179" value="打開校園/系所地圖頁面" style="whiteSpace=wrap;html=1;" vertex="1" parent="1">
          <mxGeometry x="5070" y="157.5" width="135" height="60" as="geometry" />
        </mxCell>
        <mxCell id="fquedlguML3Tx2x5SOF--180" value="" style="edgeStyle=orthogonalEdgeStyle;rounded=0;orthogonalLoop=1;jettySize=auto;html=1;" edge="1" parent="1" source="fquedlguML3Tx2x5SOF--181">
          <mxGeometry relative="1" as="geometry">
            <mxPoint x="5137.5" y="437.5" as="targetPoint" />
          </mxGeometry>
        </mxCell>
        <mxCell id="fquedlguML3Tx2x5SOF--181" value="按下樓層按鈕" style="whiteSpace=wrap;html=1;" vertex="1" parent="1">
          <mxGeometry x="5072.5" y="297.5" width="130" height="60" as="geometry" />
        </mxCell>
        <mxCell id="fquedlguML3Tx2x5SOF--182" value="顯示樓層地圖" style="whiteSpace=wrap;html=1;" vertex="1" parent="1">
          <mxGeometry x="5072.5" y="437.5" width="130" height="60" as="geometry" />
        </mxCell>
        <mxCell id="fquedlguML3Tx2x5SOF--183" value="" style="edgeStyle=orthogonalEdgeStyle;rounded=0;orthogonalLoop=1;jettySize=auto;html=1;" edge="1" parent="1">
          <mxGeometry relative="1" as="geometry">
            <mxPoint x="5137.5" y="497.5" as="sourcePoint" />
            <mxPoint x="5137.5" y="587.5" as="targetPoint" />
          </mxGeometry>
        </mxCell>
        <mxCell id="fquedlguML3Tx2x5SOF--184" value="" style="verticalLabelPosition=bottom;verticalAlign=top;html=1;shape=mxgraph.basic.donut;dx=25;" vertex="1" parent="1">
          <mxGeometry x="5092.5" y="587.5" width="90" height="90" as="geometry" />
        </mxCell>
        <mxCell id="fquedlguML3Tx2x5SOF--185" value="" style="edgeStyle=orthogonalEdgeStyle;rounded=0;orthogonalLoop=1;jettySize=auto;html=1;" edge="1" parent="1" source="fquedlguML3Tx2x5SOF--186">
          <mxGeometry relative="1" as="geometry">
            <mxPoint x="4945" y="155" as="targetPoint" />
          </mxGeometry>
        </mxCell>
        <mxCell id="fquedlguML3Tx2x5SOF--186" value="" style="ellipse;whiteSpace=wrap;html=1;aspect=fixed;" vertex="1" parent="1">
          <mxGeometry x="4910" width="70" height="70" as="geometry" />
        </mxCell>
        <mxCell id="fquedlguML3Tx2x5SOF--187" value="" style="edgeStyle=orthogonalEdgeStyle;rounded=0;orthogonalLoop=1;jettySize=auto;html=1;" edge="1" parent="1" target="fquedlguML3Tx2x5SOF--188">
          <mxGeometry relative="1" as="geometry">
            <mxPoint x="4945" y="215" as="sourcePoint" />
          </mxGeometry>
        </mxCell>
        <mxCell id="fquedlguML3Tx2x5SOF--188" value="顯示歷史資訊" style="whiteSpace=wrap;html=1;" vertex="1" parent="1">
          <mxGeometry x="4880" y="295" width="130" height="60" as="geometry" />
        </mxCell>
        <mxCell id="fquedlguML3Tx2x5SOF--189" value="" style="edgeStyle=orthogonalEdgeStyle;rounded=0;orthogonalLoop=1;jettySize=auto;html=1;" edge="1" parent="1">
          <mxGeometry relative="1" as="geometry">
            <mxPoint x="4945" y="355" as="sourcePoint" />
            <mxPoint x="4945" y="445" as="targetPoint" />
          </mxGeometry>
        </mxCell>
        <mxCell id="fquedlguML3Tx2x5SOF--190" value="" style="verticalLabelPosition=bottom;verticalAlign=top;html=1;shape=mxgraph.basic.donut;dx=25;" vertex="1" parent="1">
          <mxGeometry x="4900" y="445" width="90" height="90" as="geometry" />
        </mxCell>
        <mxCell id="fquedlguML3Tx2x5SOF--191" value="打開歷史資訊頁面" style="whiteSpace=wrap;html=1;" vertex="1" parent="1">
          <mxGeometry x="4880" y="160" width="130" height="60" as="geometry" />
        </mxCell>
        <mxCell id="fquedlguML3Tx2x5SOF--192" value="" style="edgeStyle=orthogonalEdgeStyle;rounded=0;orthogonalLoop=1;jettySize=auto;html=1;" edge="1" parent="1" source="fquedlguML3Tx2x5SOF--34" target="fquedlguML3Tx2x5SOF--194">
          <mxGeometry relative="1" as="geometry">
            <mxPoint x="1999.9" y="755" as="targetPoint" />
            <mxPoint x="1997" y="515" as="sourcePoint" />
          </mxGeometry>
        </mxCell>
        <mxCell id="fquedlguML3Tx2x5SOF--193" value="No" style="edgeLabel;html=1;align=center;verticalAlign=middle;resizable=0;points=[];" vertex="1" connectable="0" parent="fquedlguML3Tx2x5SOF--192">
          <mxGeometry x="-0.1206" relative="1" as="geometry">
            <mxPoint as="offset" />
          </mxGeometry>
        </mxCell>
        <mxCell id="fquedlguML3Tx2x5SOF--194" value="顯示教室查詢頁面" style="whiteSpace=wrap;html=1;" vertex="1" parent="1">
          <mxGeometry x="1939.94" y="575" width="120" height="60" as="geometry" />
        </mxCell>
        <mxCell id="fquedlguML3Tx2x5SOF--195" value="" style="edgeStyle=orthogonalEdgeStyle;rounded=0;orthogonalLoop=1;jettySize=auto;html=1;" edge="1" parent="1" source="fquedlguML3Tx2x5SOF--196" target="fquedlguML3Tx2x5SOF--198">
          <mxGeometry relative="1" as="geometry" />
        </mxCell>
        <mxCell id="fquedlguML3Tx2x5SOF--196" value="" style="ellipse;whiteSpace=wrap;html=1;aspect=fixed;" vertex="1" parent="1">
          <mxGeometry x="2204.94" width="70" height="70" as="geometry" />
        </mxCell>
        <mxCell id="fquedlguML3Tx2x5SOF--197" value="" style="edgeStyle=orthogonalEdgeStyle;rounded=0;orthogonalLoop=1;jettySize=auto;html=1;" edge="1" parent="1" source="fquedlguML3Tx2x5SOF--198" target="fquedlguML3Tx2x5SOF--200">
          <mxGeometry relative="1" as="geometry" />
        </mxCell>
        <mxCell id="fquedlguML3Tx2x5SOF--198" value="打開登入頁面" style="whiteSpace=wrap;html=1;" vertex="1" parent="1">
          <mxGeometry x="2179.94" y="100" width="120" height="60" as="geometry" />
        </mxCell>
        <mxCell id="fquedlguML3Tx2x5SOF--199" value="" style="edgeStyle=orthogonalEdgeStyle;rounded=0;orthogonalLoop=1;jettySize=auto;html=1;" edge="1" parent="1" source="fquedlguML3Tx2x5SOF--200" target="fquedlguML3Tx2x5SOF--203">
          <mxGeometry relative="1" as="geometry" />
        </mxCell>
        <mxCell id="fquedlguML3Tx2x5SOF--200" value="點擊第三方登入" style="whiteSpace=wrap;html=1;" vertex="1" parent="1">
          <mxGeometry x="2179.94" y="200" width="120" height="60" as="geometry" />
        </mxCell>
        <mxCell id="fquedlguML3Tx2x5SOF--201" value="" style="edgeStyle=orthogonalEdgeStyle;rounded=0;orthogonalLoop=1;jettySize=auto;html=1;entryX=0.5;entryY=0;entryDx=0;entryDy=0;" edge="1" parent="1">
          <mxGeometry relative="1" as="geometry">
            <mxPoint x="2238.94" y="380" as="sourcePoint" />
            <mxPoint x="2238.94" y="445" as="targetPoint" />
          </mxGeometry>
        </mxCell>
        <mxCell id="fquedlguML3Tx2x5SOF--202" value="Yes" style="edgeLabel;html=1;align=center;verticalAlign=middle;resizable=0;points=[];" vertex="1" connectable="0" parent="fquedlguML3Tx2x5SOF--201">
          <mxGeometry x="-0.1179" relative="1" as="geometry">
            <mxPoint as="offset" />
          </mxGeometry>
        </mxCell>
        <mxCell id="fquedlguML3Tx2x5SOF--203" value="第一次登入" style="rhombus;whiteSpace=wrap;html=1;" vertex="1" parent="1">
          <mxGeometry x="2199.94" y="300" width="80" height="80" as="geometry" />
        </mxCell>
        <mxCell id="fquedlguML3Tx2x5SOF--204" value="檢查登入資訊是否正確" style="rhombus;whiteSpace=wrap;html=1;" vertex="1" parent="1">
          <mxGeometry x="2003.9999999999998" y="840" width="126.06" height="80" as="geometry" />
        </mxCell>
        <mxCell id="fquedlguML3Tx2x5SOF--205" value="" style="verticalLabelPosition=bottom;verticalAlign=top;html=1;shape=mxgraph.basic.donut;dx=25;" vertex="1" parent="1">
          <mxGeometry x="2194.94" y="810" width="90" height="90" as="geometry" />
        </mxCell>
        <mxCell id="fquedlguML3Tx2x5SOF--206" value="" style="edgeStyle=orthogonalEdgeStyle;rounded=0;orthogonalLoop=1;jettySize=auto;html=1;entryX=0.501;entryY=0;entryDx=0;entryDy=0;entryPerimeter=0;" edge="1" parent="1">
          <mxGeometry relative="1" as="geometry">
            <mxPoint x="2239.65" y="757.5" as="sourcePoint" />
            <mxPoint x="2240.03" y="812.5" as="targetPoint" />
          </mxGeometry>
        </mxCell>
        <mxCell id="fquedlguML3Tx2x5SOF--207" value="顯示教室查詢頁面" style="whiteSpace=wrap;html=1;" vertex="1" parent="1">
          <mxGeometry x="2179.94" y="697.5" width="120" height="60" as="geometry" />
        </mxCell>
        <mxCell id="fquedlguML3Tx2x5SOF--208" value="填寫註冊資料" style="whiteSpace=wrap;html=1;" vertex="1" parent="1">
          <mxGeometry x="2179.94" y="445" width="120" height="60" as="geometry" />
        </mxCell>
        <mxCell id="fquedlguML3Tx2x5SOF--209" value="檢查註冊資訊是否正確" style="rhombus;whiteSpace=wrap;html=1;" vertex="1" parent="1">
          <mxGeometry x="2176.91" y="565" width="126.06" height="80" as="geometry" />
        </mxCell>
        <mxCell id="fquedlguML3Tx2x5SOF--210" value="" style="edgeStyle=orthogonalEdgeStyle;rounded=0;orthogonalLoop=1;jettySize=auto;html=1;" edge="1" parent="1">
          <mxGeometry relative="1" as="geometry">
            <mxPoint x="2239.58" y="645" as="sourcePoint" />
            <mxPoint x="2239.58" y="700" as="targetPoint" />
          </mxGeometry>
        </mxCell>
        <mxCell id="fquedlguML3Tx2x5SOF--211" value="Yes" style="edgeLabel;html=1;align=center;verticalAlign=middle;resizable=0;points=[];" vertex="1" connectable="0" parent="fquedlguML3Tx2x5SOF--210">
          <mxGeometry x="-0.1179" relative="1" as="geometry">
            <mxPoint as="offset" />
          </mxGeometry>
        </mxCell>
        <mxCell id="fquedlguML3Tx2x5SOF--212" value="" style="edgeStyle=orthogonalEdgeStyle;rounded=0;orthogonalLoop=1;jettySize=auto;html=1;entryX=1;entryY=0.5;entryDx=0;entryDy=0;exitX=1;exitY=0.5;exitDx=0;exitDy=0;" edge="1" parent="1" source="fquedlguML3Tx2x5SOF--209" target="fquedlguML3Tx2x5SOF--200">
          <mxGeometry relative="1" as="geometry">
            <mxPoint x="2302.97" y="602.5" as="sourcePoint" />
            <mxPoint x="2302.97" y="657.5" as="targetPoint" />
            <Array as="points">
              <mxPoint x="2303" y="603" />
              <mxPoint x="2340" y="603" />
              <mxPoint x="2340" y="230" />
            </Array>
          </mxGeometry>
        </mxCell>
        <mxCell id="fquedlguML3Tx2x5SOF--213" value="No" style="edgeLabel;html=1;align=center;verticalAlign=middle;resizable=0;points=[];" vertex="1" connectable="0" parent="fquedlguML3Tx2x5SOF--212">
          <mxGeometry x="-0.1179" relative="1" as="geometry">
            <mxPoint x="-20" y="162" as="offset" />
          </mxGeometry>
        </mxCell>
        <mxCell id="fquedlguML3Tx2x5SOF--214" value="" style="edgeStyle=orthogonalEdgeStyle;rounded=0;orthogonalLoop=1;jettySize=auto;html=1;entryX=0.5;entryY=0;entryDx=0;entryDy=0;" edge="1" parent="1">
          <mxGeometry relative="1" as="geometry">
            <mxPoint x="2239.51" y="505" as="sourcePoint" />
            <mxPoint x="2239.51" y="570" as="targetPoint" />
          </mxGeometry>
        </mxCell>
        <mxCell id="fquedlguML3Tx2x5SOF--215" value="" style="edgeStyle=orthogonalEdgeStyle;rounded=0;orthogonalLoop=1;jettySize=auto;html=1;entryX=0;entryY=0.5;entryDx=0;entryDy=0;exitX=0;exitY=0.5;exitDx=0;exitDy=0;" edge="1" parent="1" source="fquedlguML3Tx2x5SOF--203" target="fquedlguML3Tx2x5SOF--207">
          <mxGeometry relative="1" as="geometry">
            <mxPoint x="2130.06" y="380" as="sourcePoint" />
            <mxPoint x="2130.06" y="445" as="targetPoint" />
            <Array as="points">
              <mxPoint x="2140" y="340" />
              <mxPoint x="2140" y="728" />
            </Array>
          </mxGeometry>
        </mxCell>
        <mxCell id="fquedlguML3Tx2x5SOF--216" value="No" style="edgeLabel;html=1;align=center;verticalAlign=middle;resizable=0;points=[];" vertex="1" connectable="0" parent="fquedlguML3Tx2x5SOF--215">
          <mxGeometry x="-0.1179" relative="1" as="geometry">
            <mxPoint x="30" y="-155" as="offset" />
          </mxGeometry>
        </mxCell>
        <mxCell id="fquedlguML3Tx2x5SOF--217" value="" style="edgeStyle=orthogonalEdgeStyle;rounded=0;orthogonalLoop=1;jettySize=auto;html=1;" edge="1" parent="1" source="fquedlguML3Tx2x5SOF--218" target="fquedlguML3Tx2x5SOF--220">
          <mxGeometry relative="1" as="geometry" />
        </mxCell>
        <mxCell id="fquedlguML3Tx2x5SOF--218" value="" style="ellipse;whiteSpace=wrap;html=1;aspect=fixed;" vertex="1" parent="1">
          <mxGeometry x="3390" width="70" height="70" as="geometry" />
        </mxCell>
        <mxCell id="fquedlguML3Tx2x5SOF--219" value="" style="edgeStyle=orthogonalEdgeStyle;rounded=0;orthogonalLoop=1;jettySize=auto;html=1;" edge="1" parent="1" source="fquedlguML3Tx2x5SOF--220" target="fquedlguML3Tx2x5SOF--223">
          <mxGeometry relative="1" as="geometry" />
        </mxCell>
        <mxCell id="fquedlguML3Tx2x5SOF--220" value="打開教室查詢頁面" style="whiteSpace=wrap;html=1;" vertex="1" parent="1">
          <mxGeometry x="3365" y="155" width="120" height="60" as="geometry" />
        </mxCell>
        <mxCell id="fquedlguML3Tx2x5SOF--221" value="" style="edgeStyle=orthogonalEdgeStyle;rounded=0;orthogonalLoop=1;jettySize=auto;html=1;" edge="1" parent="1" source="fquedlguML3Tx2x5SOF--223">
          <mxGeometry relative="1" as="geometry">
            <mxPoint x="3425" y="435" as="targetPoint" />
          </mxGeometry>
        </mxCell>
        <mxCell id="fquedlguML3Tx2x5SOF--222" value="" style="edgeStyle=orthogonalEdgeStyle;rounded=0;orthogonalLoop=1;jettySize=auto;html=1;" edge="1" parent="1" source="fquedlguML3Tx2x5SOF--223" target="fquedlguML3Tx2x5SOF--224">
          <mxGeometry relative="1" as="geometry" />
        </mxCell>
        <mxCell id="fquedlguML3Tx2x5SOF--223" value="按下解禁教室按鈕" style="whiteSpace=wrap;html=1;" vertex="1" parent="1">
          <mxGeometry x="3360" y="295" width="130" height="60" as="geometry" />
        </mxCell>
        <mxCell id="fquedlguML3Tx2x5SOF--224" value="更新資料庫" style="whiteSpace=wrap;html=1;" vertex="1" parent="1">
          <mxGeometry x="3365" y="435" width="120" height="60" as="geometry" />
        </mxCell>
        <mxCell id="fquedlguML3Tx2x5SOF--225" value="" style="verticalLabelPosition=bottom;verticalAlign=top;html=1;shape=mxgraph.basic.donut;dx=25;" vertex="1" parent="1">
          <mxGeometry x="3380" y="575" width="90" height="90" as="geometry" />
        </mxCell>
        <mxCell id="fquedlguML3Tx2x5SOF--226" value="" style="edgeStyle=orthogonalEdgeStyle;rounded=0;orthogonalLoop=1;jettySize=auto;html=1;" edge="1" parent="1">
          <mxGeometry relative="1" as="geometry">
            <mxPoint x="3424.6" y="495" as="sourcePoint" />
            <mxPoint x="3424.6" y="575" as="targetPoint" />
          </mxGeometry>
        </mxCell>
      </root>
    </mxGraphModel>
  </diagram>
</mxfile>
